<?xml version="1.0" encoding="UTF-8" standalone="no"?>
<!-- Created with Inkscape (http://www.inkscape.org/) -->

<svg
   width="80.022041mm"
   height="134.73958mm"
   viewBox="0 0 80.022041 134.73958"
   version="1.1"
   id="svg5"
   xml:space="preserve"
   inkscape:export-filename="ghost-trans(1).svg"
   inkscape:export-xdpi="96"
   inkscape:export-ydpi="96"
   xmlns:inkscape="http://www.inkscape.org/namespaces/inkscape"
   xmlns:sodipodi="http://sodipodi.sourceforge.net/DTD/sodipodi-0.dtd"
   xmlns="http://www.w3.org/2000/svg"
   xmlns:svg="http://www.w3.org/2000/svg"><sodipodi:namedview
     id="namedview7"
     pagecolor="#ffffff"
     bordercolor="#000000"
     borderopacity="0.25"
     inkscape:showpageshadow="2"
     inkscape:pageopacity="0"
     inkscape:pagecheckerboard="0"
     inkscape:deskcolor="#d1d1d1"
     inkscape:document-units="mm"
     showgrid="false" /><defs
     id="defs2"><clipPath
       clipPathUnits="userSpaceOnUse"
       id="clipPath1645"><path
         id="path1647"
         style="fill:#ff0000;fill-opacity:1;fill-rule:nonzero;stroke:none;stroke-width:0.264583"
         d="m 75.898795,199.46041 v 25.20983 c 0.01828,-0.0484 0.03664,-0.0968 0.05478,-0.14521 0.277699,-0.7057 0.536311,-1.41791 0.810803,-2.12494 0.247356,-0.69391 0.487214,-1.39049 0.743109,-2.08152 0.280347,-0.85651 0.596627,-1.70061 0.927076,-2.53887 0.300831,-0.75335 0.627192,-1.49608 0.919324,-2.25309 0.341511,-0.80307 0.690033,-1.60295 0.979784,-2.42672 0.369358,-0.94412 0.755808,-1.87999 1.20251,-2.79001 0.350083,-0.76804 0.79348,-1.48594 1.215948,-2.21434 0.396944,-0.64643 0.842933,-1.2607 1.277956,-1.88154 0.211722,-0.34779 0.397915,-0.71192 0.589629,-1.07383 0.151805,-0.28658 0.309213,-0.5552 0.468704,-0.81598 -1.994498,-1.21989 -2.849533,-3.08741 -2.568834,-4.86378 z m 68.813375,0 c 0.25821,0.95427 0.11699,1.89126 -0.39791,2.71921 0.0921,0.23107 0.18336,0.46265 0.27957,0.69195 0.30452,0.72596 0.63961,1.43712 0.96376,2.15439 0.4378,0.94183 0.88872,1.87932 1.27383,2.84427 0.40092,1.02388 0.7993,2.04932 1.12396,3.10059 0.23487,0.67045 0.4452,1.34294 0.7922,1.96835 0.37481,0.86819 0.73947,1.74392 1.02112,2.64739 0.22464,0.75768 0.4588,1.51269 0.73898,2.25206 0.32902,0.89419 0.65155,1.78984 1.04283,2.65978 0.32865,0.83878 0.63329,1.68692 0.94774,2.53111 0.26763,0.74823 0.54811,1.49203 0.88057,2.21434 0.35721,0.86728 0.77707,1.70851 1.10433,2.58847 0.23639,0.67147 0.45362,1.34968 0.70331,2.01642 0.15005,0.38945 0.24644,0.78963 0.43822,1.14411 0.0991,0.14933 0.19751,0.29929 0.2961,0.44907 v -31.98151 z m -19.97191,4.15427 v 5.3e-4 5.3e-4 5.3e-4 c 0.0541,0.20166 0.1052,0.3982 0.16588,0.6413 2.66673,10.68381 -8.54915,13.41207 -10.80709,2.63447 -0.0237,-0.11306 -0.0671,-0.26894 -0.10594,-0.40618 -0.0324,-0.0666 -0.0637,-0.1335 -0.0951,-0.2005 -0.0797,-0.0423 -0.15256,-0.082 -0.19792,-0.11059 -0.0317,-0.02 0.13561,0.0637 0.10231,0.0465 -0.0587,-0.0303 -0.11797,-0.0597 -0.17725,-0.0889 -0.24137,0.001 -0.48262,0.003 -0.72398,0.006 -0.55065,0.007 -1.10139,0.0168 -1.65158,0.0419 -0.76521,0.0354 -1.52907,0.091 -2.2934,0.1416 -0.74285,0.0289 -1.48544,0.03 -2.22881,0.017 -0.22643,-0.003 -0.45265,-0.0128 -0.67902,-0.017 5.3e-4,0.002 10e-4,0.005 0.002,0.007 0.84685,3.97866 -2.80446,5.07223 -4.08658,1.82211 -0.32537,0.19296 -0.59431,0.36381 -0.71106,0.48835 0.21511,0.0301 0.42985,0.0588 0.6413,0.10593 -0.0251,-0.001 0.50716,0.10888 0.41186,0.11731 -1.03378,0.0914 -1.25881,-0.004 -1.05316,-0.22324 -0.23237,-0.0325 -0.46492,-0.0663 -0.69247,-0.12713 -0.582072,-0.14348 -1.16978,-0.28601 -1.721344,-0.52451 -0.483018,-0.23652 -0.928748,-0.52522 -1.388544,-0.8015 -0.316984,-0.203 -0.681034,-0.30594 -1.036113,-0.41962 -0.221605,-0.0709 -0.428292,-0.14964 -0.621152,-0.23461 -0.186494,1.17821 -0.620204,2.47613 -1.370973,3.86695 -0.405937,0.752 -0.797957,1.51502 -1.292947,2.21382 -0.268624,0.38107 -0.537943,0.76192 -0.802534,1.14566 -0.304824,0.5111 -0.618681,1.02301 -0.88315,1.60921 -0.235411,0.47406 -0.417465,0.99443 -0.637686,1.48363 -0.32803,0.90705 -0.681847,1.80529 -1.07642,2.68562 -0.305885,0.79026 -0.647081,1.5645 -0.958083,2.35231 -0.305787,0.75626 -0.571844,1.52774 -0.835091,2.29961 -0.276601,0.74291 -0.526873,1.49437 -0.802534,2.23758 -0.266978,0.6872 -0.51874,1.38024 -0.788067,2.06655 -0.224756,0.58342 -0.434163,1.17199 -0.636654,1.76526 -0.207835,0.52924 -0.394059,1.06598 -0.586009,1.60145 -0.210752,0.68294 -0.426617,1.36571 -0.585494,2.06293 -0.223639,0.84206 -0.491911,1.66976 -0.722437,2.50941 -0.299834,1.01325 -0.650288,2.00735 -1.071769,2.97707 -0.294867,0.69946 -0.591595,1.39814 -0.87023,2.10427 -0.234593,0.61839 -0.495284,1.22918 -0.669211,1.86862 -0.154419,0.50989 -0.289486,1.02605 -0.4377,1.53789 0.09377,0.0873 0.185729,0.17646 0.272851,0.27182 0.22311,0.25709 0.456539,0.50521 0.669211,0.77101 0.436899,0.54603 0.782672,1.16845 1.105876,1.78645 0.0065,0.0124 -0.02037,-0.0184 -0.03049,-0.0284 0.368906,0.58582 0.732856,1.17685 1.019577,1.80454 0.27858,-0.21593 0.569423,-0.42007 0.897101,-0.63562 1.04679,-0.52576 1.247778,-0.63409 2.330093,-0.97048 0.309229,-0.0769 0.201581,-0.0507 0.295072,-0.0739 7.93e-4,-7.9e-4 0.0019,-2e-4 0.0026,-0.002 -0.0099,0.002 -0.04861,0.0121 -0.05064,0.0124 -0.02936,0.004 0.01558,-0.009 0.06305,-0.0228 0.05989,-0.0497 0.122952,-0.0967 0.182417,-0.14676 1.118486,-0.94226 1.926161,-1.34599 2.504758,-1.35651 1.020257,-0.0186 1.32322,1.1927 1.361672,2.83032 0.266005,-0.10879 0.534996,-0.21051 0.800987,-0.31678 0.556334,-0.26305 1.129485,-0.48581 1.700154,-0.7152 0.526526,-0.20171 1.053912,-0.40004 1.588016,-0.58084 0.226023,-0.11312 0.479287,-0.1645 0.703315,-0.28009 0.733952,-0.37866 1.397987,-0.53229 1.965773,-0.52038 2.460369,0.0516 3.113479,3.20811 -0.184484,4.59765 -0.05635,0.0237 -0.113961,0.0441 -0.170532,0.0672 -0.422465,0.37093 -0.992177,0.70507 -1.719791,0.96118 -0.376968,0.13269 -0.759513,0.25527 -1.086239,0.48835 -0.202004,0.13481 -0.407895,0.27271 -0.595831,0.42736 -0.08551,0.0704 -0.135361,0.17548 -0.208773,0.25838 -0.302162,0.29255 -0.533908,0.64732 -0.768945,0.99426 -0.698143,1.03054 -1.494525,1.56648 -2.221569,1.72392 0.09889,0.98051 0.37473,1.6218 1.014408,1.58957 0.491225,-0.23994 0.958945,-0.52335 1.416968,-0.82372 -0.202565,0.2847 1.300811,-1.08211 0.977717,-0.76326 -1.103273,1.08883 -1.86931,1.56053 -2.394685,1.58698 -0.175292,0.0856 -0.353497,0.16608 -0.535366,0.23926 -0.407744,0.16353 -0.8172,0.29929 -1.234035,0.42272 -0.01244,0.0123 -0.03076,0.0325 -0.04083,0.0419 -0.569888,0.53435 -1.096877,0.9269 -1.803505,1.30018 -0.264962,0.13995 -0.552556,0.2319 -0.82889,0.34779 -0.20693,0.0657 -0.415284,0.12513 -0.624768,0.17828 -0.04068,0.60363 -0.08497,1.20874 -0.166399,1.80816 -0.03,0.77488 -0.07529,1.54888 -0.157097,2.32027 -0.08379,0.81939 -0.181708,1.63747 -0.233577,2.4598 -0.05791,0.68513 -0.0558,1.37225 -0.08837,2.0593 -0.04044,0.79383 -0.09727,1.58631 -0.193267,2.37557 -0.06023,0.47742 -0.06884,0.96158 -0.09974,1.44332 1.722843,0.92383 2.3119,1.55531 2.163176,2.01021 -0.131909,-0.11257 -0.202224,-0.17022 -0.06666,-0.0646 -0.434692,-0.39221 -0.505807,-0.43947 -0.805119,-0.76223 -0.341787,-0.35864 -0.710102,-0.68733 -1.091407,-1.00304 -0.124687,-0.10323 -0.14806,-0.11625 -0.201538,-0.15451 -0.01569,0.23765 -0.03589,0.47484 -0.07338,0.71003 -0.0756,0.65269 -0.138623,1.30386 -0.173116,1.96061 -0.0092,0.10241 -0.01746,0.20079 -0.02532,0.29869 1.301266,-0.22692 2.27966,-0.50791 2.436543,-0.98444 0.05814,0.0496 0.100933,0.0852 0.189653,0.16382 0.326557,0.28934 0.663175,0.5922 0.977717,0.90175 0.502325,0.52917 1.007327,1.05928 1.457794,1.63401 0.516223,0.58883 1.023067,1.18887 1.469675,1.83296 0.487963,0.73407 1.034344,1.43589 1.38338,2.25413 0.392866,0.86929 0.763989,1.75038 1.057817,2.65875 0.235003,0.76304 0.549868,1.5019 0.713653,2.28617 0.167232,0.78923 0.333645,1.58047 0.388604,2.38745 0.0728,0.7463 0.155297,1.49346 0.120406,2.24482 -0.009,0.73175 -0.01974,1.46389 -0.07079,2.19418 -0.110392,1.20722 -0.347073,2.39437 -0.92656,3.47473 -0.141465,0.23705 -0.270174,0.48201 -0.424262,0.71106 -0.200258,0.29764 -0.424805,0.57362 -0.663528,0.83664 0.0052,0.0842 0.01199,0.16847 0.01707,0.2527 0.07423,0.75806 0.147912,1.51617 0.227375,2.27376 0.142846,0.77105 0.235487,1.55668 0.41031,2.32131 0.230926,0.94203 0.342826,1.90568 0.426331,2.87011 0.07109,0.89141 0.08955,1.78568 0.104905,2.67942 0.04902,1.03369 -0.09821,2.05452 -0.336415,3.05718 -0.148217,0.64893 -0.423431,1.23807 -0.701249,1.83761 -0.310078,0.66918 -0.604647,1.17576 -0.886251,1.5503 0.121629,0.18622 0.167526,0.26681 0.387572,0.63407 0.427736,0.68515 0.795774,1.40589 1.147736,2.13217 0.19154,0.41317 0.368694,0.83237 0.540017,1.25418 1.378035,0.59178 2.541397,2.0339 3.058729,4.60334 0.0026,0.0126 0.211294,0.11024 0.186034,0.0362 0.02804,0.009 0.29074,0.0921 0.29714,0.0925 0.02249,0.001 -0.07314,-0.046 -0.05064,-0.045 0.122295,0.006 0.241604,0.0414 0.36277,0.0589 0.438406,0.0635 0.676767,0.0851 1.131717,0.13487 1.20492,0.10056 2.40743,0.1971 3.60495,0.3607 0.57678,-0.21819 1.176,-0.36677 1.78232,-0.48886 1.18581,-0.16002 2.4143,-0.18087 3.57445,0.1633 0.3505,0.10396 0.68727,0.2495 1.03095,0.37414 0.91784,0.41429 1.77199,0.94951 2.60139,1.5167 0.61745,0.42032 1.17143,0.92344 1.7725,1.36529 0.3477,0.26492 0.29137,0.2225 0.45631,0.339 h 4.05246 c 0.89633,0.0204 1.78914,-0.003 2.68304,-0.063 0.93433,-0.0831 1.86839,-0.11112 2.80552,-0.0718 1.10788,0.0674 2.19075,0.32754 3.25406,0.63252 0.73104,0.17934 1.40093,0.53918 2.10685,0.78393 -0.42827,-0.17592 0.62721,0.0542 0.73174,0.0713 0.7903,0.12453 1.57794,0.26508 2.36264,0.42116 0.46431,0.0959 0.93622,0.13603 1.4087,0.16123 0.74464,0.0163 1.49248,0.0758 2.23708,0.0367 0.7896,-0.042 1.57883,-0.0934 2.36884,-0.1297 0.0361,-10e-4 0.072,-0.005 0.10801,-0.007 0.002,-10e-4 0.003,-0.003 0.005,-0.004 0.66629,-0.57583 1.30883,-1.1775 1.95957,-1.77043 0.70915,-0.65311 1.45671,-1.26093 2.23243,-1.83245 0.74673,-0.51368 1.51207,-1.0035 2.21226,-1.58026 0.12799,-0.17121 0.92584,-0.65208 0.99013,-0.86351 0.006,-0.0198 -0.0133,-0.003 -0.0367,0.0191 -0.0359,0.0738 -0.0717,0.14724 -0.13125,0.12247 -0.0828,-0.0345 0.0845,-0.15859 0.1204,-0.24081 0.0167,-0.0383 0.0267,-0.0794 0.0372,-0.11989 0.0505,-0.19594 0.0882,-0.39784 0.13177,-0.59532 0.11583,-0.64691 0.22044,-1.29718 0.31213,-1.9482 0.0703,-0.61463 0.0987,-1.23275 0.12351,-1.85053 0.0462,-0.7085 0.14576,-1.41118 0.19637,-2.11925 0.0342,-0.56714 0.0442,-1.13576 0.0532,-1.70377 0.0341,-0.57097 -0.0362,-1.13599 -0.0765,-1.70481 -0.0624,-1.03093 -0.0847,-2.06343 -0.10387,-3.09593 -0.0144,-0.87726 -0.0192,-1.75505 -0.0222,-2.6324 -0.004,-0.69331 -0.0787,-1.38459 -0.1204,-2.07688 -0.0472,-0.83607 -0.0695,-1.6733 -0.0858,-2.51044 -0.0384,-0.28396 -0.093,-0.54068 -0.15037,-0.85679 -0.17846,-0.96408 -0.2286,-1.94302 -0.262,-2.92075 -0.0268,-1.02648 -0.0374,-2.05368 -0.0444,-3.08044 -0.005,-0.83384 -0.007,-1.66729 -0.008,-2.50114 -5.3e-4,-0.69267 -7.9e-4,-1.38574 -0.001,-2.07842 -1.3e-4,-0.66057 -5.3e-4,-1.32072 -5.3e-4,-1.98128 -0.0226,-0.83409 0.0275,-1.66552 0.093,-2.49648 0.0509,-0.89471 0.15067,-1.78557 0.25994,-2.67478 0.0953,-0.85582 0.23382,-1.70501 0.3731,-2.55436 0.0686,-0.84151 0.47159,-1.61565 0.61392,-2.43758 0.10962,-0.70326 0.20114,-1.4085 0.32452,-2.10995 0.14992,-0.91827 0.30553,-1.83597 0.447,-2.7559 0.22918,-1.40762 0.51176,-2.80497 0.83148,-4.19458 0.1533,-0.58298 0.24716,-1.17581 0.30696,-1.77457 0.05,-0.64239 0.0587,-1.28668 0.0677,-1.93063 -0.0418,-1.20543 -0.23509,-2.39879 -0.41754,-3.58893 -0.20258,-1.31449 -0.4295,-2.62386 -0.78393,-3.90674 -0.34875,-1.18934 -0.66772,-2.38574 -0.96067,-3.58996 -0.19337,-0.7474 -0.39463,-1.49297 -0.64492,-2.22363 -0.17485,-0.60261 -0.42049,-1.17105 -0.67748,-1.74047 -0.13103,-0.28697 -0.321,-0.5396 -0.49248,-0.80253 -0.1116,-0.16385 -0.21736,-0.33107 -0.32091,-0.49971 -0.14075,-0.11771 -0.26336,-0.20543 -0.6134,-0.49351 -0.7475,-0.57534 -1.34685,-1.30151 -1.86345,-2.0867 -0.43106,-0.77315 -0.35532,-0.60389 -0.60048,-1.17099 -0.0262,-0.0367 -0.0611,-0.0881 -0.11369,-0.16898 0.0116,0.0215 0.0482,0.0845 0.0351,0.0641 -0.294,-0.44699 -0.57663,-0.89766 -0.85059,-1.35495 -6.50465,-4.63962 -4.49757,-10.90456 0.80925,-10.96471 0.82349,-0.009 1.72845,0.13778 2.69131,0.45682 -0.11213,-0.28788 -0.22128,-0.57703 -0.33331,-0.86455 -0.29568,-0.75714 -0.53029,-1.53661 -0.80874,-2.2996 -0.29495,-0.66861 -0.59342,-1.33581 -0.87901,-2.00866 -0.41021,-0.90059 -0.75691,-1.82827 -1.09296,-2.75849 -0.28299,-0.72481 -0.52088,-1.46805 -0.81752,-2.18746 -0.4274,-0.95594 -0.7804,-1.94093 -1.14308,-2.9223 -0.36245,-0.96062 -0.66938,-1.94056 -0.96325,-2.92386 -0.16952,-0.46441 -0.35513,-0.92506 -0.55656,-1.37717 -0.45667,-0.87146 -0.76659,-1.80586 -1.09192,-2.7311 -0.28233,-0.92462 -0.63153,-1.82519 -0.98444,-2.72438 -0.30922,-0.74893 -0.66246,-1.47914 -1.00407,-2.21382 -0.38106,-0.83555 -0.76517,-1.66964 -1.12396,-2.5151 -0.35229,-0.83166 -0.67439,-1.67597 -0.97824,-2.52646 -0.24742,-0.063 -0.49366,-0.12889 -0.73845,-0.19378 -0.81666,-0.2112 -1.65189,-0.33824 -2.48926,-0.4315 -0.60296,-0.0645 -1.20848,-0.0976 -1.81436,-0.11679 -0.29473,-0.009 -0.58935,-0.0129 -0.88418,-0.017 -0.99363,-0.0142 -1.89038,-0.12221 -2.70216,-0.29869 z m -10.24899,3.09025 0.004,0.004 c 0.10859,0.0849 0.0832,0.0647 -0.004,-0.004 z m 38.98057,24.72665 c -6.34699,0.0226 6.61343,11.51922 0.90434,11.30371 0.0609,0.2336 0.12299,0.46696 0.18035,0.70176 0.015,0.0813 0.0293,0.0925 -0.002,0.0568 0.0386,0.10437 0.0771,0.20882 0.11575,0.31316 0.0199,0.0608 -0.11081,-0.22871 -0.0961,-0.1664 0.0118,0.0497 0.047,0.091 0.0703,0.13642 0.4378,0.79723 0.0658,0.19979 0.65783,1.11053 0.21141,0.32832 0.4194,0.65856 0.61857,0.99374 v -13.96918 c -0.23394,-0.13825 -0.4843,-0.24559 -0.75241,-0.2961 -0.67633,-0.12746 -1.23703,-0.18612 -1.69654,-0.18449 z m -12.22923,13.12427 c 0.0365,0.0649 0.0759,0.12699 0.11679,0.18707 -0.0619,-0.10086 -0.13735,-0.22366 -0.11679,-0.18707 z m -53.788964,3.25768 c -0.0031,5.3e-4 -0.0062,0.001 -0.0093,0.002 -0.0024,5.2e-4 -0.0034,0.001 -0.0057,0.002 -0.0016,8e-4 -0.0034,0.001 -0.0052,0.002 0.0024,-5.3e-4 0.01834,-0.005 0.02016,-0.005 z m -2.621547,1.72031 c -0.01667,0.003 -0.01376,0.002 -0.02894,0.005 0.01429,-0.002 0.02328,-0.002 0.03772,-0.004 -0.0029,-2.6e-4 -0.0059,-0.002 -0.0088,-0.001 z m -8.933304,39.07772 v 0.61598 c 0.07242,-0.0721 0.148979,-0.14255 0.226859,-0.21239 -0.07872,-0.1293 -0.153765,-0.26478 -0.226859,-0.40359 z m 0,7.10241 v 1.88463 c 0.334319,-0.22736 0.668388,-0.45558 0.99994,-0.68677 0.101475,-0.0718 0.203694,-0.14224 0.305924,-0.21291 -0.503769,-0.29321 -0.940813,-0.62429 -1.305864,-0.98495 z m 2.223637,14.11541 c -0.20943,0.1513 -0.422777,0.29769 -0.643371,0.43408 -0.520584,0.35371 -1.04707,0.6993 -1.580266,1.03405 v 22.90248 h 16.832048 c -0.345038,-0.2855 -0.691028,-0.59922 -1.037146,-0.94516 -0.07866,-0.0786 -0.157501,-0.15705 -0.236161,-0.23565 -0.747549,-0.78195 -1.436508,-1.61237 -2.133719,-2.43913 -0.879364,-1.04708 -1.754889,-2.10666 -2.44533,-3.29178 -0.514863,-0.86173 -0.994902,-1.7473 -1.367875,-2.68098 -0.238117,-0.60685 -0.472966,-1.21557 -0.737941,-1.81126 -0.172461,-0.45484 -0.47022,-0.86523 -0.70435,-1.28777 -0.357457,-0.59328 -0.781026,-1.17545 -1.053163,-1.82573 -0.281586,-0.62531 -0.543769,-1.25835 -0.790652,-1.89808 -0.279006,-0.66996 -0.530791,-1.35022 -0.806151,-2.02158 -0.0328,-0.35543 -0.386522,-0.63869 -0.497644,-0.96428 -0.07909,-0.22479 -0.0024,-0.0249 -0.348298,-0.48266 -0.606009,-0.80218 -1.182068,-1.62925 -1.621607,-2.5368 -0.304271,-0.63788 -0.589611,-1.28505 -0.828374,-1.94975 z m 26.201498,14.76189 c -0.013,-1e-5 -0.0256,0.002 -0.0388,0.002 0.0139,0.002 0.0281,0.004 0.0418,0.006 0.0926,0.0101 0.18455,0.0255 0.27751,0.0305 0.008,5.3e-4 -0.0103,-0.0141 -0.0186,-0.015 -0.0867,-0.01 -0.17475,-0.0216 -0.262,-0.0217 z m 51.59685,9.263 c -0.0662,0.11517 -0.1351,0.23023 -0.20877,0.34572 h 0.20877 z" /></clipPath></defs><g
     inkscape:label="Layer 1"
     inkscape:groupmode="layer"
     id="layer1"
     transform="translate(80.941826,-195.45597)"
     style="display:inline"><g
       id="g1415"
       style="display:inline"
       clip-path="url(#clipPath1645)"
       transform="translate(-156.84062,-4.0044419)"><path
         style="fill:#ede92d;stroke-width:0.264583"
         d="m 89.465496,240.82334 c -0.330385,-0.33039 -0.177541,-1.19552 0.3395,-1.92163 0.314047,-0.44104 0.457107,-0.94928 0.365646,-1.29902 -0.08263,-0.31599 -0.02726,-0.72272 0.123058,-0.90385 0.150312,-0.18113 0.518644,-1.28182 0.818512,-2.44599 0.299869,-1.16416 0.794478,-2.77151 1.099135,-3.57187 0.304655,-0.80037 0.734767,-1.93146 0.955805,-2.51354 0.221035,-0.58209 0.669782,-2.36802 0.997209,-3.96875 0.520004,-2.5422 0.66675,-2.92099 1.159875,-2.99399 0.507492,-0.0751 0.548394,-0.20147 0.404678,-1.25 l -0.159877,-1.16643 0.638027,-0.24258 c 0.751176,-0.28559 1.614133,-3.14126 1.489905,-4.93034 l -0.07349,-1.05833 h 0.782903 c 0.670507,0 0.808106,0.12322 0.958437,0.85826 0.09654,0.47205 0.312925,1.02382 0.480848,1.22615 0.343103,0.41341 1.099653,4.06794 1.280163,6.18382 0.12506,1.46593 0.39502,1.73483 0.86328,0.85989 0.18661,-0.34868 0.55399,-0.52916 1.07716,-0.52916 h 0.79396 l 1.04881,-2.16882 c 0.57685,-1.19285 1.04882,-2.38477 1.04882,-2.64872 0,-0.26394 0.24999,-1.04415 0.55553,-1.73378 0.8567,-1.93365 0.97882,-2.25714 1.15106,-3.04919 0.0986,-0.45345 0.41189,-0.83263 0.81434,-0.98564 0.35974,-0.13677 0.65407,-0.43021 0.65407,-0.6521 0,-0.70525 1.05879,-0.44171 2.36542,0.58877 2.17188,1.71284 5.30749,6.29319 5.30749,7.7529 0,0.80325 1.12134,1.89037 2.75663,2.6725 l 1.609,0.76956 0.88641,-1.00035 c 0.48753,-0.55019 1.25636,-1.53612 1.70851,-2.19097 0.45216,-0.65484 1.10771,-1.48828 1.45678,-1.85208 0.34908,-0.3638 0.9857,-1.43536 1.41473,-2.38125 1.29754,-2.86073 1.41048,-3.03981 1.96809,-3.12086 0.29571,-0.043 0.86414,0.046 1.26318,0.19769 l 0.72551,0.27584 -0.0814,1.12523 c -0.0631,0.87188 0.0276,1.1848 0.40256,1.38981 0.43929,0.24016 3.91335,7.99892 4.32415,9.65729 0.2021,0.81585 0.9293,1.90352 2.25148,3.36753 1.09575,1.21328 1.22649,1.67985 0.61333,2.18872 -0.21828,0.18116 -0.39687,0.61619 -0.39687,0.96674 0,0.37426 -0.19114,0.69846 -0.46302,0.78535 -0.25466,0.0814 -0.71794,0.26942 -1.02951,0.41785 -0.37297,0.17769 -0.72474,0.18131 -1.02976,0.0106 -0.63441,-0.35503 -1.37022,-0.11943 -1.52952,0.48975 -0.16042,0.61344 -1.31865,0.66779 -2.29819,0.10783 -0.84399,-0.48247 -1.97211,-0.49737 -2.72129,-0.036 -0.73059,0.44996 -4.42232,0.9852 -7.51792,1.08997 -2.01822,0.0683 -2.54784,0.19016 -3.82154,0.87926 -1.47794,0.7996 -4.46416,2.04994 -6.4271,2.69106 l -1.04097,0.34 -0.48908,-0.60399 c -0.40544,-0.5007 -0.5894,-0.55646 -1.0757,-0.32606 -1.0598,0.50214 -2.14121,0.83292 -4.55536,1.3934 -1.30969,0.30407 -2.8821,0.73948 -3.49426,0.96758 -0.612149,0.22811 -1.403097,0.34193 -1.75766,0.25294 -0.662802,-0.16635 -3.399964,0.86506 -3.735207,1.4075 -0.2666,0.43136 -1.728502,0.34647 -1.728502,-0.10037 0,-0.83554 -1.136759,-0.78712 -1.860018,0.0792 -0.659985,0.79056 -1.285164,1.03519 -1.667759,0.65259 z"
         id="path1419" /><path
         style="fill:#ffffff;fill-opacity:1;stroke-width:0;stroke-dasharray:none;paint-order:markers fill stroke"
         d="m 114.48706,334.10222 c -0.25268,-0.0921 -0.54048,-0.12095 -0.63957,-0.064 -0.0991,0.0569 -0.25172,-0.0123 -0.3392,-0.15384 -0.0875,-0.14155 -0.33383,-0.19028 -0.54745,-0.10831 -0.21362,0.082 -0.3884,0.0172 -0.3884,-0.14384 0,-0.16109 -0.17859,-0.29289 -0.39687,-0.29289 -0.21829,0 -0.39688,-0.10418 -0.39688,-0.23151 0,-0.12733 -0.36563,-0.30464 -0.81251,-0.39402 -0.54863,-0.10972 -1.47237,-0.84013 -2.84427,-2.24898 l -2.03176,-2.08648 -1.71979,0.24936 c -1.86881,0.27096 -4.14175,0.14773 -4.928569,-0.26721 -0.507603,-0.2677 -2.725473,-0.97168 -3.066503,-0.97336 -0.104423,-5.3e-4 -0.419116,-0.19723 -0.69932,-0.43714 -0.280204,-0.23992 -0.741251,-0.50979 -1.024549,-0.5997 -0.283297,-0.0899 -0.673332,-0.45916 -0.866743,-0.82056 -0.19341,-0.36139 -0.51013,-0.65707 -0.703821,-0.65707 -0.193691,0 -0.352165,-0.18233 -0.352165,-0.40518 0,-0.22285 -0.178594,-0.47371 -0.396875,-0.55747 -0.218282,-0.0838 -0.396875,-0.29579 -0.396875,-0.47117 0,-0.17538 -0.246463,-0.82899 -0.547696,-1.45247 -0.301233,-0.62348 -0.479565,-1.20173 -0.396298,-1.285 0.08327,-0.0833 -0.04189,-0.36498 -0.278143,-0.62603 -0.236247,-0.26105 -0.368724,-0.63313 -0.294389,-0.82684 0.07433,-0.19371 -0.09924,-0.82322 -0.385731,-1.39891 -0.571754,-1.14895 -0.592555,-1.24889 -1.01655,-4.88318 -0.360183,-3.08732 -0.358667,-8.42127 0.0026,-8.85647 0.146227,-0.17619 0.206428,-0.37978 0.133784,-0.45243 -0.333248,-0.33324 1.167204,-6.1915 1.827112,-7.13365 0.234426,-0.33469 0.426227,-0.86472 0.426227,-1.17785 0,-0.31313 0.175872,-1.06779 0.390827,-1.67704 0.405045,-1.14803 0.681977,-4.02607 0.368768,-3.8325 -0.09791,0.0605 -0.168425,-0.27666 -0.156702,-0.74929 0.02609,-1.05182 -0.636235,-2.48938 -1.691537,-3.67139 -0.463147,-0.51876 -0.741354,-1.08026 -0.670147,-1.35256 0.08277,-0.31699 -0.03032,-0.46557 -0.354467,-0.46557 -0.467175,0 -0.90953,-0.66267 -0.684938,-1.02607 0.06274,-0.10151 -0.242636,-0.34246 -0.678611,-0.53544 -0.435973,-0.19298 -0.891003,-0.6052 -1.01118,-0.91604 -0.120173,-0.31084 -0.528788,-0.85381 -0.908028,-1.20659 -0.379244,-0.35279 -0.689531,-0.75746 -0.689531,-0.89926 0,-0.14181 -0.535781,-0.90864 -1.190625,-1.70407 -0.654844,-0.79543 -1.190625,-1.61116 -1.190625,-1.81272 0,-0.20156 -0.09655,-0.36648 -0.214564,-0.36648 -0.599729,0 -1.140518,-4.95476 -0.779709,-7.14375 0.08395,-0.50932 0.230841,-1.64042 0.326422,-2.51354 0.09558,-0.87313 0.272928,-1.82563 0.394113,-2.11667 0.121184,-0.29104 0.365858,-0.91612 0.543719,-1.38906 0.17786,-0.47294 0.428003,-0.8599 0.555868,-0.8599 0.127865,0 0.232484,-0.21983 0.232484,-0.48851 0,-0.56555 0.734968,-2.12857 1.241031,-2.63924 0.190558,-0.19229 0.35075,-0.48995 0.355984,-0.66146 0.0052,-0.1715 0.292068,-0.6574 0.63741,-1.07976 0.828535,-1.01333 0.462563,-2.11566 -0.628092,-1.89186 -2.356683,0.48358 -6.755045,0.0177 -7.871431,-0.83388 -1.208257,-0.92158 -1.404252,-1.35488 -1.561875,-3.45291 -0.07375,-0.98157 -0.187677,-1.94158 -0.253188,-2.13337 -0.06551,-0.19178 0.04812,-1.20382 0.252513,-2.24896 0.204391,-1.04514 0.444587,-2.41438 0.533768,-3.04276 0.09593,-0.67593 0.429824,-1.43119 0.817597,-1.84938 0.360497,-0.38878 0.65545,-0.80392 0.65545,-0.92253 0,-0.11861 0.242818,-0.74868 0.539599,-1.40016 0.29678,-0.65147 0.473432,-1.29155 0.392559,-1.4224 -0.08087,-0.13086 -0.02603,-0.31271 0.12186,-0.40411 0.147894,-0.0914 0.268898,-0.43697 0.268898,-0.76793 0,-0.33096 0.0893,-0.69105 0.198438,-0.80019 0.10914,-0.10914 0.208145,-0.27781 0.220009,-0.37482 0.07025,-0.57441 0.485296,-1.811 0.699148,-2.08303 0.137983,-0.17553 0.179155,-0.43519 0.09149,-0.57703 -0.08766,-0.14184 -0.02508,-0.3409 0.139052,-0.44234 0.316296,-0.19548 2.039742,-3.86993 2.233459,-4.76181 0.03339,-0.15372 0.324837,-0.80857 0.647666,-1.45521 0.322831,-0.64665 0.63314,-1.51225 0.68958,-1.92356 0.05644,-0.41132 0.292407,-1.18522 0.524376,-1.71979 0.231968,-0.53458 0.59042,-1.36295 0.796559,-1.84083 0.206143,-0.47788 0.374804,-0.99567 0.374804,-1.15064 0,-0.15497 0.159284,-0.65695 0.353967,-1.1155 0.194684,-0.45856 0.565121,-1.42905 0.823199,-2.15665 0.258074,-0.72761 0.681273,-1.88145 0.940437,-2.5641 0.259168,-0.68265 0.404321,-1.30808 0.322562,-1.38984 -0.194461,-0.19446 1.023612,-2.79294 1.30923,-2.79294 0.120644,0 0.219355,-0.27136 0.219355,-0.60303 0,-0.67824 1.551998,-2.4032 2.693199,-2.99334 0.410512,-0.21228 0.746385,-0.48753 0.746385,-0.61166 0,-0.22946 1.393859,-0.88835 2.116666,-1.00056 0.218282,-0.0339 0.873125,0.0664 1.455209,0.22287 0.582083,0.15647 1.618255,0.27297 2.302608,0.2589 0.684346,-0.0141 1.305796,0.0739 1.380986,0.19562 0.0752,0.12167 1.01013,0.19398 2.07764,0.16069 2.5069,-0.0782 4.44122,-1.011 3.67834,-1.77387 -0.19352,-0.19353 -0.17882,-0.37605 0.0486,-0.6035 0.87639,-0.87639 3.21087,-1.05772 3.96124,-0.30768 0.5643,0.56406 0.94199,0.38296 0.44649,-0.21409 -0.28147,-0.33914 -0.24787,-0.40327 0.21126,-0.40327 0.30027,0 0.62306,0.12476 0.7173,0.27725 0.0942,0.15248 0.39053,0.24178 0.65842,0.19843 0.53716,-0.0869 2.11188,1.27224 2.11188,1.82278 0,0.19106 0.23812,0.36226 0.52916,0.38045 0.86013,0.0538 1.00412,0.0891 1.21268,0.29766 0.10914,0.10914 0.0549,0.19843 -0.12055,0.19843 -0.18111,0 -0.0842,0.252 0.22416,0.58301 0.6267,0.67268 3.44243,0.88355 3.64594,0.27303 0.0599,-0.17978 0.26374,-0.32687 0.45292,-0.32687 0.18918,0 0.43506,-0.26789 0.54639,-0.59531 0.37986,-1.11721 0.52141,-1.39008 1.57834,-3.04271 l 1.05758,-1.65365 h 6.70353 c 5.246,0 6.67925,0.0719 6.59185,0.33073 -0.0614,0.1819 0.0491,0.71712 0.24556,1.18936 0.19648,0.47225 0.35913,0.91749 0.36145,0.98941 0.002,0.0719 0.0528,0.28086 0.11207,0.46429 0.32379,1.0012 0.6037,2.98024 0.47058,3.32714 -0.10852,0.28279 -0.0507,0.33682 0.19676,0.18389 0.22989,-0.14209 0.28714,-0.11418 0.16644,0.0811 -0.10119,0.16373 -0.0124,0.62958 0.19741,1.03523 0.20977,0.40565 0.42299,0.97469 0.47383,1.26454 0.0508,0.28985 0.1817,0.59354 0.2908,0.67486 0.1091,0.0813 0.21907,0.67632 0.24438,1.32221 0.0265,0.67575 0.36351,1.81427 0.79382,2.68157 0.4113,0.82897 0.74782,1.91604 0.74782,2.41571 0,0.49967 0.17728,1.05562 0.39396,1.23544 0.21668,0.17983 0.34385,0.40804 0.28261,0.50713 -0.0612,0.0991 0.12782,0.71068 0.42013,1.35908 0.29232,0.64841 0.5521,1.56534 0.57729,2.03763 0.0252,0.47229 0.12635,0.85924 0.22482,0.85989 0.47476,0.003 1.87177,2.97182 1.51033,3.2095 -0.30389,0.19983 -0.29093,0.28556 0.0759,0.50227 0.24329,0.14373 0.51493,0.59183 0.60366,0.9958 0.0887,0.40396 0.57047,1.07562 1.07055,1.49258 0.50008,0.41696 0.84592,0.86056 0.76853,0.98577 -0.17199,0.27829 0.36833,0.84008 1.08366,1.1267 l 0.52917,0.21204 -0.52917,0.21758 c -0.29104,0.11968 -0.38637,0.22596 -0.21185,0.23619 0.46562,0.0273 1.90107,1.64251 1.76796,1.98938 -0.0626,0.16321 0.12,0.54779 0.40585,0.85461 0.28585,0.30682 0.45544,0.62214 0.37687,0.70071 -0.0786,0.0786 -0.0466,0.29854 0.071,0.48882 0.1176,0.19028 0.22981,0.71498 0.24936,1.166 0.0196,0.45101 0.11025,0.9409 0.20155,1.08862 0.0999,0.16171 -0.0698,0.22353 -0.42646,0.15534 -0.61543,-0.11764 -1.94071,-2.0534 -1.81741,-2.65457 0.0373,-0.1819 -0.0602,-0.33073 -0.21666,-0.33073 -0.15646,0 -0.35843,-0.20836 -0.44881,-0.46302 -0.0904,-0.25466 -0.5629,-1.02885 -1.05003,-1.72041 -0.48714,-0.69156 -0.8857,-1.35771 -0.8857,-1.48034 0,-0.12263 -0.23813,-0.43847 -0.52917,-0.70186 -0.29104,-0.26339 -0.52916,-0.62445 -0.52916,-0.80236 0,-0.17791 -0.18421,-0.47634 -0.40935,-0.6632 -0.22514,-0.18685 -0.70633,-0.94557 -1.06931,-1.68604 -0.36298,-0.74047 -0.76894,-1.52491 -0.90213,-1.74319 -0.4096,-0.67129 -1.85255,-3.99025 -1.85255,-4.2611 0,-0.14049 -0.1817,-0.53275 -0.40378,-0.87168 -0.38199,-0.58299 -1.46355,-4.01554 -1.56456,-4.96546 -0.0258,-0.24252 -0.1863,-0.60892 -0.35669,-0.81423 -0.17039,-0.2053 -0.47038,-1.13797 -0.66665,-2.07259 -0.19628,-0.93462 -0.49641,-1.95938 -0.66697,-2.27723 -0.17055,-0.31786 -0.3101,-0.87638 -0.3101,-1.24116 0,-0.36478 -0.1053,-0.72832 -0.234,-0.80786 -0.12871,-0.0795 -0.38299,-0.94977 -0.56509,-1.93384 -0.81287,-4.39294 -1.72151,-5.1659 -6.47695,-5.50978 -2.24439,-0.1623 -3.60971,0.30827 -4.02357,1.38675 -0.0931,0.24272 -0.62492,0.89688 -1.18174,1.4537 -0.55682,0.55682 -1.0124,1.13146 -1.0124,1.27698 0,0.14552 -0.0955,0.26458 -0.21232,0.26458 -0.11677,0 -0.43563,0.62508 -0.70856,1.38907 -1.29609,3.62788 -2.28126,4.39208 -3.84162,2.97994 -0.3638,-0.32925 -1.19724,-0.93983 -1.85208,-1.35686 -0.65485,-0.41703 -1.25016,-0.82217 -1.32292,-0.90031 -0.0728,-0.0781 -0.60854,-0.35496 -1.19062,-0.61517 -0.7021,-0.31386 -1.29905,-0.86677 -1.77346,-1.64264 -1.31939,-2.15779 -3.01263,-2.66271 -4.76427,-1.42068 -0.39429,0.27958 -0.82708,0.50832 -0.96176,0.50832 -0.39099,0 -1.10754,1.25863 -0.95011,1.66888 0.0789,0.20553 -0.1443,0.71779 -0.49594,1.13834 -0.35164,0.42056 -0.72311,1.03227 -0.82548,1.35935 -0.29519,0.94316 -1.32496,1.03683 -2.39829,0.21816 -0.50552,-0.38558 -1.40387,-0.87208 -1.99631,-1.08111 -0.592446,-0.20903 -1.213407,-0.46425 -1.379917,-0.56716 -0.16651,-0.1029 -0.546883,-0.21231 -0.845272,-0.24312 -0.298392,-0.0308 -1.137841,-0.14044 -1.865445,-0.2436 l -1.322917,-0.18758 -1.223857,1.29631 c -0.828307,0.87735 -1.316469,1.67715 -1.510408,2.47465 -0.379799,1.56178 -2.587601,8.04157 -3.196111,9.38042 -0.581031,1.2784 -2.166001,5.6586 -2.962987,8.18846 -0.318543,1.01116 -0.78626,2.20178 -1.039371,2.64584 -0.253108,0.44405 -0.606719,1.28362 -0.785799,1.8657 -0.179081,0.58209 -0.430279,1.17145 -0.558221,1.30969 -0.127942,0.13825 -0.232622,0.46567 -0.232622,0.72761 0,0.26193 -0.09456,0.47625 -0.210134,0.47625 -0.115573,0 -0.412187,0.65617 -0.659138,1.45815 -0.246954,0.80199 -0.646028,1.90332 -0.886831,2.4474 -0.240802,0.54408 -0.481518,1.21263 -0.534924,1.48566 -0.09246,0.47273 -0.244014,0.85 -1.262533,3.14299 -0.732028,1.648 -1.203047,3.44164 -1.206077,4.5927 -0.0016,0.5986 -0.124349,1.72896 -0.27283,2.5119 -0.432848,2.2824 0.205544,3.21651 2.386634,3.49218 0.617395,0.078 1.149482,-0.0407 1.596432,-0.35612 0.368716,-0.26024 1.142622,-0.55328 1.719792,-0.65119 0.57717,-0.0979 1.823307,-0.4591 2.769193,-0.80264 0.945885,-0.34353 2.196042,-0.70364 2.778125,-0.80023 1.107702,-0.1838 2.649607,-0.61713 5.256276,-1.47717 l 1.552107,-0.51211 0.6222,0.40768 c 0.56339,0.36915 0.649398,1.20038 0.124206,1.20038 -0.106596,0 -0.327219,0.29281 -0.490279,0.65068 -0.163057,0.35788 -0.807249,0.90941 -1.43153,1.22562 -2.215526,1.12222 -7.881938,6.53318 -7.881938,7.52661 0,0.12115 -0.221658,0.46607 -0.49257,0.7665 -0.534284,0.59247 -2.257041,5.16084 -2.031309,5.38657 0.07592,0.0759 0.0016,0.30249 -0.165257,0.50348 -0.174587,0.21037 -0.356928,1.75777 -0.429686,3.64644 l -0.126394,3.28098 0.861111,1.65457 c 0.473609,0.91001 1.274955,2.01851 1.78077,2.46333 0.505812,0.44482 1.320623,1.40407 1.810687,2.13168 0.490064,0.7276 1.25893,1.73963 1.708592,2.24896 0.449659,0.50932 1.316979,1.73823 1.927373,2.73091 0.610394,0.99268 1.288402,2.07147 1.506683,2.39731 1.805461,2.69512 2.116667,3.24963 2.116667,3.7715 0,0.32673 -0.100375,0.65608 -0.223057,0.7319 -0.122682,0.0758 -0.495062,1.06512 -0.827514,2.19843 -0.332451,1.13332 -0.693142,2.17964 -0.801537,2.32516 -0.252698,0.33925 -1.471239,4.37183 -2.198632,7.27604 -0.694285,2.77202 -0.746932,9.12668 -0.09473,11.43486 0.21717,0.76859 0.479248,2.05227 0.582396,2.85264 0.103145,0.80036 0.263403,1.51474 0.356129,1.5875 0.246602,0.19351 1.093121,2.70099 1.091592,3.23341 -0.0021,0.74997 1.643753,2.85669 2.371357,3.03528 0.368522,0.0905 1.443948,0.5742 2.389833,1.07499 l 1.719792,0.91053 2.51355,-0.11343 c 2.5023,-0.11291 4.22741,-0.6899 4.23166,-1.41534 7.9e-4,-0.15731 0.31129,-0.45173 0.68972,-0.65426 0.88221,-0.47214 1.42862,0.15447 1.42862,1.63831 0,2.39598 2.7086,5.5034 4.823,5.53312 4.55926,0.0641 6.68376,-0.51507 8.19599,-2.23429 1.03361,-1.17508 1.97598,-1.15255 3.6314,0.0868 0.86966,0.65108 1.72515,1.07571 2.1672,1.07571 0.40169,0 0.79889,0.11091 0.88265,0.24645 0.0838,0.13555 1.25166,0.26485 2.59531,0.28733 3.3777,0.0565 3.58487,0.041 4.24295,-0.31862 0.3197,-0.17468 1.28984,-0.40346 2.15584,-0.50839 0.97985,-0.11874 1.69482,-0.35528 1.893,-0.62631 0.17515,-0.23954 0.70788,-0.48481 1.18383,-0.54504 0.47595,-0.0602 0.93378,-0.21137 1.01741,-0.33585 0.0836,-0.12448 0.539,-0.39469 1.01194,-0.60045 0.47294,-0.20577 0.8599,-0.46443 0.8599,-0.57481 0,-0.11038 0.47625,-0.63095 1.05833,-1.15682 0.58208,-0.52588 1.05833,-1.07988 1.05833,-1.23111 0,-0.15124 0.28098,-0.6434 0.62439,-1.09369 0.86432,-1.13333 2.03729,-3.42652 2.20649,-4.31373 0.39398,-2.06584 0.44321,-14.20077 0.0644,-15.87476 -0.29295,-1.29459 -0.51338,-3.14218 -0.6563,-5.50107 -0.0441,-0.72761 -0.17144,-2.57308 -0.28299,-4.10105 -0.40632,-5.5651 -0.2165,-8.36558 0.72377,-10.67824 0.83396,-2.05115 1.39894,-3.20246 1.61971,-3.30057 0.10914,-0.0485 0.19844,-0.36891 0.19844,-0.712 0,-0.34308 0.11906,-0.69737 0.26458,-0.78731 0.14552,-0.0899 0.26459,-0.33156 0.26459,-0.53694 0,-0.20538 0.27774,-1.00203 0.61721,-1.77032 0.66035,-1.49452 0.98869,-2.53215 1.64363,-5.19427 0.40894,-1.6622 0.51908,-7.00828 0.15615,-7.57972 -0.0924,-0.14552 -0.17793,-0.62177 -0.19002,-1.05834 -0.0121,-0.43656 -0.46049,-1.71711 -0.99643,-2.84567 -1.21784,-2.56447 -1.94002,-4.51819 -2.17557,-5.88558 -0.10027,-0.58208 -0.26635,-1.17739 -0.36907,-1.32291 -0.10271,-0.14552 -0.52575,-1.09802 -0.94008,-2.11667 -0.41432,-1.01864 -0.88544,-2.03068 -1.04692,-2.24896 -0.16148,-0.21828 -0.46687,-0.75406 -0.67863,-1.19062 -0.21177,-0.43657 -0.53406,-0.88897 -0.7162,-1.00534 -0.18214,-0.11637 -0.33116,-0.38927 -0.33116,-0.60643 0,-0.60114 -1.56734,-2.55041 -2.69789,-3.35532 -1.10879,-0.78941 -1.2363,-1.10574 -0.55162,-1.36847 0.87269,-0.33489 4.45175,-0.4441 5.20227,-0.15875 l 0.74867,0.28464 -0.42467,0.64813 c -0.5606,0.85558 -0.57988,3.26963 -0.0278,3.48148 0.21828,0.0838 0.39688,0.35982 0.39688,0.61346 0,0.25364 0.35718,0.95424 0.79375,1.5569 0.43656,0.60266 0.79375,1.16284 0.79375,1.24484 0,0.18316 0.98145,2.46185 1.33219,3.09304 0.14042,0.25269 0.25531,0.78676 0.25531,1.18683 0,0.80432 1.241,3.47898 1.82651,3.93657 0.21767,0.17011 0.31073,0.52761 0.22384,0.85989 -0.0818,0.31281 -0.0408,0.56874 0.0911,0.56874 0.1319,0 0.23982,0.17609 0.23982,0.39132 0,0.33955 0.83313,3.22055 1.26406,4.37118 0.0818,0.21828 0.17121,0.87312 0.19879,1.4552 0.0276,0.58209 0.14135,1.56237 0.2528,2.17841 0.16524,0.9133 0.12327,1.15054 -0.22733,1.28508 -0.2365,0.0908 -0.42999,0.39742 -0.42999,0.68148 0,0.28406 0.11906,0.44289 0.26458,0.35295 0.14552,-0.0899 0.26459,0.0291 0.26459,0.26459 0,0.23545 -0.0893,0.37294 -0.19844,0.30553 -0.10914,-0.0674 -0.22444,0.48175 -0.25622,1.22037 -0.0318,0.73861 -0.21037,1.45066 -0.39687,1.58231 -0.26889,0.18981 -0.27063,0.26715 -0.008,0.37356 0.46649,0.18928 0.41053,0.91726 -0.12952,1.68487 -0.25313,0.35981 -0.47806,0.99619 -0.49984,1.4142 -0.0218,0.418 -0.1892,0.85247 -0.37206,0.96548 -0.18285,0.11301 -0.26266,0.38738 -0.17735,0.60971 0.0853,0.22233 -0.0164,0.54658 -0.22602,0.72056 -0.20964,0.17398 -0.38116,0.48034 -0.38116,0.6808 0,0.20047 -0.0954,0.36448 -0.2121,0.36448 -0.11666,0 -0.43343,0.77391 -0.70393,1.71979 -0.2705,0.94589 -0.60451,1.71979 -0.74225,1.71979 -0.13773,0 -0.18188,0.1786 -0.0981,0.39688 0.0838,0.21828 0.0171,0.39687 -0.14808,0.39687 -0.16521,0 -0.23383,0.0666 -0.1525,0.14788 0.0813,0.0813 -0.0749,0.75736 -0.34717,1.50228 -0.49259,1.34767 -0.84385,7.37986 -0.46627,8.00714 0.0876,0.14552 0.1585,1.39567 0.15756,2.77812 -0.002,2.54349 0.0493,3.15579 0.63968,7.67292 0.18068,1.38245 0.31783,3.46604 0.30478,4.63021 -0.013,1.16416 -0.0339,2.83104 -0.0464,3.70416 -0.0125,0.87313 -0.0132,2.00422 -0.002,2.51355 0.057,2.49676 -0.54703,6.40776 -1.15948,7.508 -0.172,0.30898 -0.31694,0.65543 -0.32209,0.76987 -0.005,0.11446 -0.12845,0.29305 -0.27397,0.39688 -0.37221,0.26558 -0.92604,1.30266 -0.92604,1.73406 0,0.19901 -0.26789,0.658 -0.59531,1.01998 -0.32742,0.36198 -0.9458,1.08651 -1.37418,1.61006 -0.42838,0.52356 -0.85318,0.906 -0.944,0.84987 -0.0908,-0.0561 -0.33215,0.1297 -0.5363,0.41295 -0.20412,0.28324 -0.52346,0.51499 -0.70962,0.51499 -0.18615,0 -0.33846,0.10961 -0.33846,0.24356 0,0.13396 -0.36523,0.32378 -0.81163,0.42183 -0.4464,0.098 -0.87559,0.34494 -0.95376,0.54867 -0.0782,0.20372 -0.2405,0.30961 -0.36072,0.23531 -0.12022,-0.0743 -0.29636,-0.009 -0.39142,0.14458 -0.0951,0.15381 -0.40094,0.20726 -0.67974,0.11878 -0.27943,-0.0887 -0.5069,-0.0364 -0.5069,0.11649 0,0.15255 -0.28904,0.34991 -0.64232,0.43858 -0.35328,0.0887 -0.70962,0.33661 -0.79187,0.55098 -0.0823,0.21437 -0.257,0.32337 -0.3883,0.24222 -0.1313,-0.0812 -0.31354,0.0474 -0.40497,0.28568 -0.0914,0.23828 -0.23268,0.36679 -0.31389,0.28558 -0.0812,-0.0812 -0.54799,0.0196 -1.03731,0.22409 -0.48932,0.20445 -1.07354,0.30117 -1.29827,0.21494 -0.22472,-0.0862 -1.03505,-0.002 -1.80072,0.18709 -1.53825,0.37997 -1.9397,0.35889 -3.55108,-0.18648 -0.60534,-0.20488 -1.45141,-0.41335 -1.88017,-0.46327 -0.42876,-0.0499 -0.89739,-0.16359 -1.04141,-0.2526 -0.47622,-0.29432 -4.43064,-0.25775 -5.18931,0.048 -0.40965,0.16509 -0.85614,0.30016 -0.99219,0.30016 -0.13604,0 -0.24736,0.11496 -0.24736,0.25547 0,0.23489 -2.3423,0.71051 -3.10885,0.63126 -0.1819,-0.0188 -0.33073,0.0597 -0.33073,0.17436 0,0.26849 -2.24556,0.45063 -2.84788,0.23098 z m 15.25693,-7.11051 c -2.42261,-1.28045 -3.01634,-1.94946 -3.01634,-6.56801 0,-1.63718 -0.0699,-2.97664 -0.15526,-2.97656 -0.21776,1.9e-4 -2.35673,3.20295 -3.65624,5.47461 -2.16219,3.77973 -5.77543,5.47351 -8.55691,4.01122 -1.26557,-0.66535 -2.55223,-5.31473 -2.57012,-9.28726 -0.006,-1.2733 -0.0997,-2.31131 -0.20887,-2.30669 -0.60918,0.0258 -1.92685,1.84022 -2.8281,3.89419 -0.27138,0.61847 -0.56786,1.12448 -0.65884,1.12448 -0.091,0 -0.66444,0.88927 -1.16654,1.34786 -5.34542,4.88229 -11.998766,0.98186 -11.826372,-7.07555 l 0.117622,-5.49744 1.057352,-2.21965 c 0.581544,-1.22081 1.149367,-2.62674 1.261829,-3.12429 0.112463,-0.49754 0.494616,-1.70577 0.849233,-2.68494 0.354616,-0.97917 0.797779,-2.00821 0.797779,-2.26473 0,-0.25652 0.08642,-0.45562 0.06136,-0.33389 -0.07389,0.35892 0.638804,-7.57398 -0.831134,-10.33337 -0.462547,-0.86828 -1.006578,-1.88983 -1.208958,-2.27011 -0.202383,-0.38028 -1.399328,-1.39214 -2.179211,-2.58506 -0.779886,-1.19291 -1.496628,-2.27244 -1.496628,-2.39895 0,-0.12651 -0.673524,-0.99596 -1.592856,-1.93211 -5.011965,-5.10365 -5.094063,-12.36452 -0.90943,-18.70287 1.905279,-2.88588 9.639264,-10.31819 12.170284,-11.69558 0.75173,-0.40908 2.47091,-1.5039 3.8204,-2.43292 3.04642,-2.09722 3.64291,-2.30418 7.13626,-2.47585 2.25935,-0.11104 3.32381,-0.37528 5.52877,-1.06256 l 2.63248,-0.82054 3.97155,-0.12862 3.71115,0.0798 0.9546,0.45156 c 0.47662,0.22546 1.17324,0.83153 1.88643,1.05572 0.71319,0.22419 2.14802,0.52435 2.91896,0.76825 0.77093,0.24391 2.76396,1.51423 3.00648,1.78221 0.24251,0.26797 0.80966,0.42538 0.9402,0.42538 2.0871,0 7.88539,8.44195 7.88539,11.28349 0,0.74665 0.3767,2.78372 0.83712,4.52681 l 0.83713,3.16926 0.0228,4.24129 c 0.0179,3.34101 0.28575,4.46425 -0.0519,5.29166 -0.23576,0.57771 -0.67159,1.82429 -0.9685,2.77017 -0.2969,0.94589 -0.7973,2.37464 -1.112,3.175 -1.3306,3.38416 -1.20609,4.0106 -1.24305,4.53603 -0.0237,0.33637 -0.002,0.56504 -0.42706,1.2688 -0.30959,0.51319 -0.82752,1.33442 -0.98142,1.94627 -0.1539,0.61184 -0.46027,1.82682 -0.68085,2.69995 l -0.40104,1.5875 0.21002,2.91041 c 0.11736,1.62628 0.68473,3.6248 0.83231,4.49792 0.14759,0.87313 0.36227,1.70656 0.47707,1.85208 0.1148,0.14552 0.22679,1.36125 0.24886,2.70162 0.0221,1.34037 0.15361,3.42396 0.2923,4.63021 0.79291,6.89616 -3.27708,14.32656 -5.71089,15.55554 -0.30013,0.15156 -1.30497,0.91264 -1.99653,1.40324 -0.69156,0.49059 -1.73364,1.04076 -2.31572,1.22259 -0.58208,0.18182 -1.17144,0.43527 -1.30969,0.56321 -0.46863,0.43371 -3.39823,-0.53863 -4.40522,-1.07086 z m 5.2484,-1.56652 c 0.25658,-0.13752 1.00229,-0.49536 1.65713,-0.7952 5.76366,-2.639 7.42866,-12.20316 4.49474,-25.8188 -0.35794,-1.6611 -0.58653,-3.72904 -0.6142,-5.55625 l -0.0441,-2.91042 0.73754,-1.5875 c 0.40565,-0.87312 0.85355,-1.7965 0.99533,-2.05195 0.14178,-0.25545 0.54629,-1.32701 0.89892,-2.38125 0.35263,-1.05424 0.87272,-2.51211 1.15576,-3.23971 2.30132,-5.91599 2.49326,-6.79921 2.35747,-10.84792 -0.18078,-5.39017 -0.33259,-6.5415 -1.3606,-10.31875 -0.23763,-0.87313 -0.54651,-2.38281 -0.68641,-3.35486 -0.38795,-2.69553 -4.71667,-8.11768 -7.66908,-9.6063 -1.56218,-0.78765 -4.42447,-1.91206 -5.42476,-2.13103 -0.43656,-0.0956 -1.42329,-0.40009 -2.19274,-0.67672 -2.43873,-0.87678 -6.24877,-0.57673 -10.37497,0.81706 -1.23693,0.41782 -3.13845,0.90224 -4.2256,1.0765 -4.48669,0.71914 -6.14168,1.3645 -8.88138,3.46324 -1.39677,1.06999 -3.21606,2.4604 -4.04286,3.08981 -3.741935,2.84853 -9.533649,9.2006 -10.415616,11.42334 -1.166353,2.93944 -1.416699,7.60469 -0.460727,8.58573 0.134712,0.13824 0.244932,0.58372 0.244932,0.98995 0,0.45204 0.205296,0.8668 0.529167,1.06906 0.291042,0.18175 0.529167,0.45815 0.529167,0.6142 0,0.15605 0.357187,0.62593 0.79375,1.04419 0.47317,0.45332 0.795419,1.03433 0.797883,1.43856 0.0024,0.40973 0.419716,1.14931 1.0542,1.86873 0.577538,0.65484 1.051928,1.27451 1.054201,1.37703 0.0024,0.10253 0.625969,0.32652 0.953391,0.69003 1.795762,1.99368 3.531822,5.24144 3.735132,6.98754 0.0535,0.45968 0.21071,0.98607 0.34932,1.16975 1.61869,2.14512 0.82918,9.11633 -1.206576,13.49584 -0.213153,0.45856 -0.387551,0.96196 -0.387551,1.11868 0,0.15672 -0.416719,1.17501 -0.926042,2.26288 -0.509322,1.08787 -0.926041,2.2254 -0.926041,2.52785 0,0.30244 -0.188548,0.99255 -0.418992,1.53358 -1.025094,2.40667 -0.08933,6.47742 2.046873,8.90427 l 1.062919,1.20755 1.23429,-0.003 c 3.27238,-0.008 4.91687,-1.32084 6.31939,-4.23336 0.32492,-0.67473 1.3169,-1.94116 2.2044,-2.81429 1.18162,-1.16248 1.77822,-2.01251 2.2284,-3.175 0.33812,-0.87312 0.94975,-2.30187 1.35917,-3.175 0.40942,-0.87312 1.02498,-2.30187 1.36793,-3.175 0.52465,-1.33576 0.72583,-1.5875 1.26866,-1.5875 1.0833,0 1.59303,1.22555 0.23113,3.80773 -0.66314,1.25733 -1.20571,2.49527 -1.20571,2.75097 0,0.2557 -0.10697,0.57802 -0.23772,0.71626 -1.3376,1.41433 -1.89793,9.90069 -0.68331,11.20228 0.129,0.13825 0.235,0.6145 0.23554,1.05833 5.3e-4,0.44384 0.23692,1.19394 0.52528,1.66688 l 0.52429,0.85989 h 1.33994 c 1.51923,0 2.46389,-0.4101 3.44996,-1.49773 0.76184,-0.8403 2.62621,-3.45047 2.62621,-3.67676 0,-0.0804 0.44767,-0.82428 0.99483,-1.65304 1.20638,-1.82727 2.32909,-4.10298 3.02957,-6.06734 0.2854,-0.80037 0.93577,-2.57836 1.44526,-3.95109 0.50949,-1.37274 0.87133,-2.5849 0.80409,-2.6937 -0.0672,-0.1088 -0.0147,-0.26426 0.11665,-0.34547 0.13139,-0.0812 0.31389,-0.54738 0.40554,-1.03594 0.18688,-0.99615 1.08443,-2.9736 1.45312,-3.20146 1.0747,-0.6642 1.11903,2.58465 -0.27692,5.62254 -0.54812,1.19284 -1.45122,4.82404 -1.74377,7.01146 -0.15669,1.1715 -0.19825,1.59845 -0.54095,5.55625 -0.32089,3.70602 0.39488,6.47184 2.2766,6.89395 0.80381,0.18031 3.51133,-0.0461 4.05853,-0.33942 z m -0.87573,-41.74441 c -0.10008,-0.55504 -0.27658,-1.12968 -0.39222,-1.27697 -0.11564,-0.14729 -0.47687,-0.98073 -0.80273,-1.85208 -0.32586,-0.87136 -0.91587,-2.12007 -1.31112,-2.77492 -0.39526,-0.65484 -0.67624,-1.08235 -0.77203,-1.62295 -0.34028,-1.92034 -2.54003,-0.55756 -4.24574,2.81372 -0.39637,0.7834 -0.76345,0.94512 -1.00801,1.03231 -0.24456,0.0872 -0.59349,0.22789 -0.77539,0.31269 -1.34342,0.62623 -0.85446,-1.80189 1.22692,-4.03057 2.66693,-2.85566 3.37058,-3.82406 3.3653,-4.63146 -0.006,-0.95064 -0.96894,-4.56338 -1.56432,-5.87031 -0.29209,-0.64117 -0.65141,-1.70275 -0.79849,-2.35906 -0.23748,-1.05966 -0.84392,-2.68828 -2.02232,-5.43095 -0.69906,-1.62704 0.23329,-2.41391 1.36116,-1.90002 0.51184,0.23321 0.72218,0.73595 1.24677,2.97993 0.34707,1.48466 0.72312,2.81844 0.83564,2.96396 0.11253,0.14553 0.28378,0.74084 0.38057,1.32292 0.0968,0.58208 0.27264,1.35599 0.39077,1.71979 0.11813,0.36381 0.50161,0.76751 0.75603,1.6662 0.52923,1.86933 1.31257,2.37282 2.31462,1.48773 0.61143,-0.54007 4.87662,-6.41923 4.87662,-6.79528 0,-0.13496 0.22865,-0.45231 0.50811,-0.70522 l 0.50811,-0.45983 0.53048,0.55031 c 0.54358,0.56389 0.85345,1.29575 -0.83088,3.23424 -1.41167,1.62466 -4.44095,6.04154 -5.10882,7.44897 -0.60685,1.27884 -0.17227,3.24583 1.36954,6.19882 0.62456,1.19619 1.13555,2.39673 1.13555,2.66788 0,0.27114 0.0854,0.57834 0.18967,0.68266 0.10432,0.10431 0.20298,0.45158 0.21926,0.7717 0.0163,0.32012 0.11893,0.78173 0.22813,1.02581 0.26766,0.59826 0.11074,1.50819 -0.27881,1.6364 -0.18928,0.0623 -1.42322,-0.20108 -1.53237,-0.80642 z m -17.50688,-8.21907 c -0.78195,-1.00806 -2.693,-4.05114 -3.32224,-4.7028 -1.38023,-1.42942 -2.36182,-2.81008 -3.52648,-1.22891 -1.44409,1.96053 -5.50961,5.3364 -6.13477,5.3364 -1.13378,0 -1.47171,-0.57826 1.692,-3.75116 1.78799,-1.79316 3.57563,-3.68827 3.97255,-4.21135 l 0.72167,-0.95104 -0.54252,-1.5625 c -0.29839,-0.85937 -0.66806,-1.97921 -0.82149,-2.48854 -0.15343,-0.50932 -0.80228,-2.02691 -1.44188,-3.37242 -1.30809,-2.7518 -0.65175,-2.97758 0.028,-2.97758 0.53468,0 1.63362,1.04116 1.63362,1.54772 0,0.17764 0.17117,0.58668 0.38037,0.90899 0.2092,0.3223 0.56653,1.18131 0.79407,1.90892 0.22754,0.7276 0.60942,1.31264 0.84862,2.06915 0.60313,1.90752 0.97265,1.94436 2.61636,0.2608 2.35426,-2.41131 3.06686,-3.36236 3.36263,-6.82787 0.0922,-1.08049 1.60851,-1.28083 1.98511,-0.29028 0.62424,1.64186 -1.19612,5.52529 -4.01842,8.57261 -2.33224,2.51819 -1.85228,3.47272 -0.73121,5.08079 0.18793,0.26957 0.83842,0.89691 1.21931,1.64856 0.69023,1.3621 0.84378,1.61109 2.43585,3.94972 1.29964,1.90907 0.22956,2.86081 -1.15118,1.08079 z M 83.837755,245.65396 c -0.07869,-0.20507 -0.407831,-1.26598 0.133785,-2.26146 1.833949,-3.37077 2.676853,-5.39531 3.177037,-7.6308 0.03256,-0.14552 0.849977,-2.5863 1.816484,-5.42396 1.490644,-4.37651 2.435564,-7.37053 3.131368,-9.92187 0.07937,-0.29104 0.403717,-1.18401 0.720767,-1.98438 0.31705,-0.80036 0.68085,-1.9621 0.808445,-2.58164 0.774475,-3.76051 3.501258,-7.1789 5.296748,-7.04343 1.042498,0.0787 2.323001,3.21776 2.323001,3.91675 0,0.28628 0.16802,1.21474 0.37339,2.06324 0.20535,0.84849 0.44757,1.87738 0.53824,2.28641 0.1439,0.64912 -0.20023,1.55911 0.53295,1.48734 l 0.64337,-0.79009 0.50107,-1.97682 c 0.53592,-2.11433 1.33714,-3.76276 2.56842,-6.35 0.55403,-1.16417 1.42737,-2.24638 1.50817,-2.50104 0.21788,-0.68667 1.54099,-0.82634 2.14733,-0.0902 0.78397,0.95183 1.41345,1.21139 1.89294,1.36644 0.48251,0.1913 1.0929,0.67072 1.24419,0.92086 0.067,0.11079 0.28699,0.1705 0.789,0.64401 1.1137,1.05047 2.76569,3.43266 2.76569,3.7257 0,0.34018 1.64297,2.85309 2.24617,3.43549 1.08956,1.05201 3.57467,0.32117 3.57467,-1.05126 0,-0.18215 0.35292,-0.77528 0.78428,-1.31807 0.96253,-1.2112 3.69867,-5.68532 4.52085,-7.66458 0.33247,-0.80036 0.76311,-1.64318 0.95697,-1.87292 0.19387,-0.22974 0.7418,-0.50154 0.7418,-0.67198 0,-0.17044 -0.17356,-0.14305 0.0222,-0.14305 0.44712,0 1.95465,0.4031 1.95465,0.88644 0,0.63363 1.60606,5.52803 1.86687,5.68922 0.13739,0.0849 -0.0839,0.54945 -0.0839,0.82839 0,0.27894 0.57138,0.73014 0.86188,1.2066 0.29049,0.47646 0.52862,1.05978 0.52916,1.29628 5.3e-4,0.23649 0.39914,1.30806 0.88577,2.38125 0.48664,1.07319 1.27244,3.08235 1.74624,4.4648 0.47381,1.38245 1.02815,2.70151 1.23189,2.93125 0.20373,0.22974 0.37043,0.6022 0.37043,0.8277 0,0.89397 3.25287,7.01565 4.06506,7.47018 1.17937,0.66 -0.003,2.44823 -2.27367,2.4918 -1.35403,0.026 -2.28908,0.16203 -2.40523,0.34996 -0.11871,0.19207 -0.52727,0.24658 -1.08856,0.14524 -0.4942,-0.0892 -1.49385,-0.0333 -2.22146,0.1244 -0.7276,0.15765 -1.73963,0.33843 -2.24896,0.40174 -1.76296,0.21915 -5.6959,0.64008 -7.40833,0.79291 -0.94588,0.0844 -2.59713,0.39598 -3.66944,0.69236 -1.07231,0.29638 -2.17352,0.48034 -2.44713,0.40879 -0.27362,-0.0716 -0.56101,-0.0273 -0.63865,0.0983 -0.0776,0.12563 -0.46472,0.22032 -0.86016,0.21043 -0.78421,-0.0196 -3.01995,0.55312 -3.23254,0.82808 -0.0728,0.0941 -0.37041,0.19192 -0.66145,0.21735 -3.22269,0.28161 -9.72945,1.65959 -10.28485,2.17809 -0.12687,0.11844 -0.39568,0.15203 -0.59736,0.0746 -0.20167,-0.0774 -0.63653,0.0361 -0.96635,0.25222 -0.32982,0.21611 -0.83495,0.42352 -2.048472,0.58134 -1.213519,0.15782 -4.675339,1.66945 -7.108116,2.10038 -1.062962,0.18828 -3.310693,0.0678 -3.310693,-0.50298 0,-0.29825 2.876982,-1.85634 3.427699,-1.85634 0.23282,0 0.674447,-0.1759 0.981392,-0.3909 0.306949,-0.21499 1.613361,-0.5136 2.903144,-0.66357 1.289783,-0.14998 3.714276,-0.64266 5.387766,-1.09486 1.67349,-0.45219 3.69755,-0.97401 4.49792,-1.15959 0.80036,-0.18558 2.35515,-0.58304 3.45509,-0.88324 1.09993,-0.30019 2.76681,-0.71805 3.70417,-0.92857 2.66663,-0.59889 5.73852,-1.42134 6.06695,-1.62432 0.16434,-0.10157 0.88428,-0.18013 1.59987,-0.17459 0.71558,0.006 1.37161,-0.10409 1.45785,-0.24362 0.0862,-0.13954 0.24904,-0.1967 0.36178,-0.12702 0.11275,0.0697 0.62481,0.0108 1.13793,-0.13091 1.72746,-0.47697 4.6225,-0.72526 5.79555,-0.49704 1.21179,0.23575 5.1813,-0.17913 5.64404,-0.5899 0.13824,-0.12271 0.61528,-0.22312 1.06008,-0.22312 0.4448,0 1.19822,-0.11171 1.67428,-0.24824 0.56718,-0.16266 1.14353,-0.15134 1.67194,0.0329 1.49565,0.52139 1.3646,-0.0844 -0.80668,-3.72901 -1.15464,-1.93812 -2.42427,-4.43311 -2.8214,-5.54442 -0.39714,-1.11132 -0.80126,-2.13964 -0.89805,-2.28516 -0.0968,-0.14552 -0.44911,-1.092 -0.78293,-2.10329 -0.33383,-1.01128 -0.76156,-1.9933 -0.95052,-2.18227 -0.18896,-0.18896 -0.72132,-1.32608 -1.18301,-2.52692 -0.46169,-1.20084 -0.93333,-2.30242 -1.04809,-2.44794 -0.26606,-0.33739 -1.00122,-2.88514 -1.18919,-4.12122 -0.0791,-0.52042 -0.3076,-1.1701 -0.50769,-1.44374 l -0.36379,-0.49752 -1.38412,2.89895 c -0.76126,1.59442 -1.54854,2.99416 -1.74951,3.11053 -0.20096,0.11638 -0.42101,0.20859 -0.42101,0.47683 0,0.26824 -0.17859,0.55625 -0.39687,0.64001 -0.21828,0.0838 -0.34126,0.67989 -0.34126,1.05283 0,0.37294 -0.17618,0.74567 -0.39152,0.82831 -0.21533,0.0826 -0.65137,0.58491 -0.96896,1.11617 -2.48695,4.16014 -4.61305,4.01447 -7.31215,-0.501 -2.45169,-4.10158 -5.74176,-7.13202 -7.74303,-7.13202 h -1.01162 l -1.05743,2.18281 c -1.30897,2.70206 -2.15279,4.83489 -2.15279,5.44139 0,0.25347 -0.32957,1.23133 -0.73239,2.17301 -1.69932,3.97263 -2.01406,3.75065 -3.38715,-2.38888 -0.21155,-0.94588 -0.50341,-2.23171 -0.64858,-2.85738 -0.726632,-3.13176 -2.804016,-3.38975 -3.088928,-0.38362 -0.0655,0.69114 -0.253516,1.53186 -0.417803,1.86827 -0.227523,0.46588 -0.21861,0.73989 0.03739,1.14982 0.276482,0.44272 0.268156,0.61582 -0.04694,0.97586 -0.668335,0.76367 -1.183412,1.99231 -1.377328,3.28543 -0.103367,0.68931 -0.278601,1.25329 -0.389409,1.25329 -0.110807,0 -0.272163,0.35346 -0.358566,0.78548 -0.0864,0.43201 -0.381709,1.01009 -0.656238,1.28462 -0.274526,0.27453 -0.583491,0.83523 -0.686588,1.246 -0.103095,0.41076 -0.537046,1.49459 -0.964335,2.40851 -0.427289,0.91391 -0.776888,1.78258 -0.776888,1.93038 0,0.14781 -0.365861,1.18973 -0.813022,2.3154 -0.447162,1.12566 -0.822468,2.37892 -0.834015,2.78501 -0.01154,0.40609 -0.121936,0.73835 -0.245311,0.73835 -0.123375,0 -0.224319,0.12609 -0.224319,0.2802 0,0.15411 0.119063,0.20661 0.264583,0.11667 0.459719,-0.28412 0.290367,0.10149 -0.552963,1.25907 -0.707588,0.97125 -0.796962,1.27542 -0.66449,2.26148 0.129645,0.96502 0.05365,1.2465 -0.496806,1.84014 -0.453742,0.48934 -0.603866,0.88411 -0.497451,1.3081 0.253198,1.00883 -0.107773,1.84039 -0.950402,2.18942 -0.433176,0.17942 -1.025988,0.73028 -1.317358,1.22411 -0.561639,0.95191 -1.001059,1.1385 -1.236464,0.52504 z"
         id="path1417"
         sodipodi:nodetypes="ccssssssscsssssssssssssssssssssssscsssssssssssssssscsscsssssssssssssssssssssssssssssssccsscssscsscsscsssscsssccsssccssssscsscsssssscssssssccssssssssssssssssssccscssscsscsssscssssssscssssssssssssssscssssscssssssscscssssssssssssssccscscsssssssssssssssssssssssssssssssssssssssssscssssssssssscsscsssssscsssssssssssssscscscscssssssssssscssssssssscsssssssscccsssscssscscssssssssssssssscccsssssssccssssssscsssssssssccccsscssssssssssscscsssssscscsscsssssscssssssssscssscssssssssssssssccssssssscscsssssssssssscssssscsssssssssscsssssssssssssssssssssssssssccssssscsssssssssssssssssssssscsssccscssssszsssssssssccscsssscssssssscscssscscssscsscsssssssssssssssssssssssssss" /></g></g></svg>
